<svg width="24" height="24" viewBox="0 0 24 24" fill="none" xmlns="http://www.w3.org/2000/svg">
    <defs>
        <clipPath id="clip0_3_121">
            <rect width="24" height="24" fill="white" />
        </clipPath>
    </defs>
    <g clip-path="url(#clip0_3_121)">
        <path
            d="M21 7.28001V5.00001C21 3.90001 20.1 3.00001 19 3.00001H5C3.89 3.00001 3 3.90001 3 5.00001V19C3 20.1 3.89 21 5 21H19C20.1 21 21 20.1 21 19V16.72C21.59 16.37 22 15.74 22 15V9.00001C22 8.26001 21.59 7.63001 21 7.28001ZM20 9.00001V15H13V9.00001H20ZM5 19V5.00001H19V7.00001H13C11.9 7.00001 11 7.90001 11 9.00001V15C11 16.1 11.9 17 13 17H19V19H5Z"
            fill="#008CFF" />
        <path
            d="M16 13.5C16.8284 13.5 17.5 12.8284 17.5 12C17.5 11.1716 16.8284 10.5 16 10.5C15.1716 10.5 14.5 11.1716 14.5 12C14.5 12.8284 15.1716 13.5 16 13.5Z"
            fill="white" />
    </g>

</svg>
