<svg width="25" height="24" viewBox="0 0 25 24" fill="none" xmlns="http://www.w3.org/2000/svg">
<path d="M11.033 2.467C11.033 2.65965 11.0709 2.85041 11.1446 3.0284C11.2184 3.20638 11.3264 3.3681 11.4626 3.50433C11.5989 3.64055 11.7606 3.74861 11.9386 3.82233C12.1165 3.89606 12.3073 3.934 12.5 3.934C12.6926 3.934 12.8834 3.89606 13.0614 3.82233C13.2393 3.74861 13.4011 3.64055 13.5373 3.50433C13.6735 3.3681 13.7816 3.20638 13.8553 3.0284C13.929 2.85041 13.967 2.65965 13.967 2.467C13.967 2.07793 13.8124 1.70479 13.5373 1.42967C13.2622 1.15456 12.889 1 12.5 1C12.1109 1 11.7377 1.15456 11.4626 1.42967C11.1875 1.70479 11.033 2.07793 11.033 2.467Z" stroke="#008CFF" stroke-width="1.5" stroke-linejoin="round"/>
<path d="M11.033 21.533C11.033 21.7256 11.0709 21.9164 11.1446 22.0944C11.2184 22.2724 11.3264 22.4341 11.4626 22.5703C11.5989 22.7065 11.7606 22.8146 11.9386 22.8883C12.1165 22.962 12.3073 23 12.5 23C12.6926 23 12.8834 22.962 13.0614 22.8883C13.2393 22.8146 13.4011 22.7065 13.5373 22.5703C13.6735 22.4341 13.7816 22.2724 13.8553 22.0944C13.929 21.9164 13.967 21.7256 13.967 21.533C13.967 21.1439 13.8124 20.7708 13.5373 20.4957C13.2622 20.2205 12.889 20.066 12.5 20.066C12.1109 20.066 11.7377 20.2205 11.4626 20.4957C11.1875 20.7708 11.033 21.1439 11.033 21.533Z" stroke="#008CFF" stroke-width="1.5" stroke-linejoin="round"/>
<path d="M19.344 17.087C19.344 17.4761 19.4986 17.8492 19.7737 18.1243C20.0488 18.3994 20.4219 18.554 20.811 18.554C21.2001 18.554 21.5732 18.3994 21.8483 18.1243C22.1234 17.8492 22.278 17.4761 22.278 17.087C22.278 16.6979 22.1234 16.3248 21.8483 16.0497C21.5732 15.7746 21.2001 15.62 20.811 15.62C20.4219 15.62 20.0488 15.7746 19.7737 16.0497C19.4986 16.3248 19.344 16.6979 19.344 17.087Z" stroke="#008CFF" stroke-width="1.5" stroke-linejoin="round"/>
<path d="M2.72205 17.087C2.72205 17.4761 2.8766 17.8492 3.15172 18.1243C3.42684 18.3994 3.79997 18.554 4.18905 18.554C4.57812 18.554 4.95126 18.3994 5.22637 18.1243C5.50149 17.8492 5.65605 17.4761 5.65605 17.087C5.65605 16.6979 5.50149 16.3248 5.22637 16.0497C4.95126 15.7746 4.57812 15.62 4.18905 15.62C3.79997 15.62 3.42684 15.7746 3.15172 16.0497C2.8766 16.3248 2.72205 16.6979 2.72205 17.087Z" stroke="#008CFF" stroke-width="1.5" stroke-linejoin="round"/>
<path d="M19.344 6.91597C19.344 7.30505 19.4986 7.67818 19.7737 7.9533C20.0488 8.22842 20.4219 8.38298 20.811 8.38298C21.2001 8.38298 21.5732 8.22842 21.8483 7.9533C22.1234 7.67818 22.278 7.30505 22.278 6.91597C22.278 6.5269 22.1234 6.15377 21.8483 5.87865C21.5732 5.60353 21.2001 5.44897 20.811 5.44897C20.4219 5.44897 20.0488 5.60353 19.7737 5.87865C19.4986 6.15377 19.344 6.5269 19.344 6.91597Z" stroke="#008CFF" stroke-width="1.5" stroke-linejoin="round"/>
<path d="M2.72205 6.91597C2.72205 7.30505 2.8766 7.67818 3.15172 7.9533C3.42684 8.22842 3.79997 8.38298 4.18905 8.38298C4.57812 8.38298 4.95126 8.22842 5.22637 7.9533C5.50149 7.67818 5.65605 7.30505 5.65605 6.91597C5.65605 6.5269 5.50149 6.15377 5.22637 5.87865C4.95126 5.60353 4.57812 5.44897 4.18905 5.44897C3.79997 5.44897 3.42684 5.60353 3.15172 5.87865C2.8766 6.15377 2.72205 6.5269 2.72205 6.91597Z" stroke="#008CFF" stroke-width="1.5" stroke-linejoin="round"/>
<path d="M10.5439 12C10.5439 12.5188 10.75 13.0163 11.1168 13.3831C11.4837 13.7499 11.9812 13.956 12.4999 13.956C13.0187 13.956 13.5162 13.7499 13.883 13.3831C14.2499 13.0163 14.4559 12.5188 14.4559 12C14.4559 11.4812 14.2499 10.9837 13.883 10.6169C13.5162 10.2501 13.0187 10.044 12.4999 10.044C11.9812 10.044 11.4837 10.2501 11.1168 10.6169C10.75 10.9837 10.5439 11.4812 10.5439 12Z" stroke="#008CFF" stroke-width="1.5" stroke-linejoin="round"/>
<path d="M12.4998 10.0444V5.93774" stroke="#008CFF" stroke-width="1.5" stroke-linecap="round" stroke-linejoin="round"/>
<path d="M12.4998 18.0622V13.9556" stroke="#008CFF" stroke-width="1.5" stroke-linecap="round" stroke-linejoin="round"/>
<path d="M11.0331 7.40368L12.4997 5.93701L13.9664 7.40368" stroke="#008CFF" stroke-width="1.5" stroke-linecap="round" stroke-linejoin="round"/>
<path d="M11.0331 16.5963L12.4997 18.063L13.9664 16.5963" stroke="#008CFF" stroke-width="1.5" stroke-linecap="round" stroke-linejoin="round"/>
<path d="M17.7798 8.67554L14.1769 10.9937" stroke="#008CFF" stroke-width="1.5" stroke-linecap="round" stroke-linejoin="round"/>
<path d="M16.314 8.08826L17.7806 8.67492L17.5846 10.3376" stroke="#008CFF" stroke-width="1.5" stroke-linecap="round" stroke-linejoin="round"/>
<path d="M7.22009 8.67554L10.823 10.9937" stroke="#008CFF" stroke-width="1.5" stroke-linecap="round" stroke-linejoin="round"/>
<path d="M8.68603 8.08801L7.21936 8.67468L7.41539 10.3374" stroke="#008CFF" stroke-width="1.5" stroke-linecap="round" stroke-linejoin="round"/>
<path d="M17.7796 15.3245L14.1768 13.0063" stroke="#008CFF" stroke-width="1.5" stroke-linecap="round" stroke-linejoin="round"/>
<path d="M16.3135 15.9114L17.7801 15.3247L17.5841 13.662" stroke="#008CFF" stroke-width="1.5" stroke-linecap="round" stroke-linejoin="round"/>
<path d="M7.21973 15.3245L10.8226 13.0063" stroke="#008CFF" stroke-width="1.5" stroke-linecap="round" stroke-linejoin="round"/>
<path d="M8.68603 15.9114L7.21936 15.3247L7.41539 13.662" stroke="#008CFF" stroke-width="1.5" stroke-linecap="round" stroke-linejoin="round"/>
</svg>
