<svg width="156" height="27" viewBox="0 0 156 27" fill="none" xmlns="http://www.w3.org/2000/svg">
<g clip-path="url(#clip0_3_77)">
<mask id="mask0_3_77" style="mask-type:luminance" maskUnits="userSpaceOnUse" x="0" y="0" width="156" height="27">
<path d="M155.829 0H0V27H155.829V0Z" fill="white"/>
</mask>
<g mask="url(#mask0_3_77)">
<mask id="mask1_3_77" style="mask-type:luminance" maskUnits="userSpaceOnUse" x="0" y="0" width="156" height="27">
<path d="M155.829 0H0V27H155.829V0Z" fill="white"/>
</mask>
<g mask="url(#mask1_3_77)">
<path d="M28.044 22.8236H26.1717C25.9774 22.8236 25.796 22.9235 25.6988 23.0858L24.7626 24.648C24.6655 24.8103 24.6655 25.0117 24.7626 25.174L25.6988 26.7362C25.796 26.8985 25.9758 26.9984 26.1717 26.9984H28.044C28.2384 26.9984 28.4198 26.8985 28.517 26.7362L29.4531 25.174C29.5503 25.0117 29.5503 24.8103 29.4531 24.648L28.517 23.0858C28.4198 22.9235 28.24 22.8236 28.044 22.8236Z" fill="#008CFF"/>
<path d="M28.5806 10.9545L22.962 1.5763C22.3774 0.600867 21.2971 0 20.1277 0H8.89226C7.72288 0 6.64258 0.600867 6.05789 1.5763L0.439371 10.9545C-0.145318 11.9299 -0.145318 13.1332 0.439371 14.1087L6.05789 23.4853C6.64258 24.4608 7.72288 25.0616 8.89226 25.0616H20.1277C21.2971 25.0616 22.3774 24.4608 22.962 23.4853L28.5806 14.1087C29.1653 13.1332 29.1653 11.9299 28.5806 10.9545ZM26.271 13.4516L21.2161 21.8872C20.8743 22.4568 20.2443 22.8064 19.5624 22.8064H9.45589C8.77403 22.8064 8.14399 22.4553 7.80224 21.8872L2.74735 13.4516C2.40561 12.882 2.40561 12.1812 2.74735 11.6116L7.80224 3.17601C8.14399 2.60636 8.77403 2.25676 9.45589 2.25676H19.5641C20.2459 2.25676 20.876 2.60792 21.2177 3.17601L26.2726 11.6116C26.6143 12.1812 26.6143 12.882 26.2726 13.4516" fill="#008CFF"/>
<path d="M52.4276 22.7908H49.6127C49.3001 22.7908 49.0442 22.5427 49.0442 22.2383V13.7794H40.9687V22.2383C40.9687 22.5427 40.7128 22.7908 40.4002 22.7908H37.5853C37.2727 22.7908 37.0168 22.5427 37.0168 22.2383V2.77803C37.0168 2.47369 37.2727 2.25208 37.5853 2.25208H40.4002C40.7128 2.25208 40.9687 2.47369 40.9687 2.77803V10.4067H49.0442V2.77803C49.0442 2.47369 49.3001 2.25208 49.6127 2.25208H52.4276C52.7402 2.25208 52.9961 2.47369 52.9961 2.77803V22.2383C52.9961 22.5427 52.7402 22.7908 52.4276 22.7908Z" fill="#0C0C0C"/>
<path d="M69.5164 16.2671H60.2472V16.3498C60.2472 17.9527 60.9291 19.8598 63.6598 19.8598C65.7362 19.8598 67.6976 19.6944 68.8912 19.5836H68.9771C69.2621 19.5836 69.4889 19.7225 69.4889 19.9987V21.8232C69.4889 22.2649 69.4031 22.4584 68.8912 22.5427C67.0432 22.8751 65.9338 23.0124 63.3748 23.0124C60.5307 23.0124 56.4929 21.5204 56.4929 16.0736V14.0275C56.4929 9.71531 58.9661 7.00595 63.3165 7.00595C67.6668 7.00595 70.0833 9.90884 70.0833 14.0275V15.5757C70.0833 16.0174 69.9132 16.2671 69.5148 16.2671M66.3014 13.5577C66.3014 11.4024 65.0786 10.1586 63.3165 10.1586C61.5543 10.1586 60.2748 11.3743 60.2748 13.5577V13.6686H66.3031V13.5577H66.3014Z" fill="#0C0C0C"/>
<path d="M85.6108 22.7908H82.3699C82.0573 22.7908 81.9148 22.7081 81.6022 22.2383L78.3613 17.3737L75.2904 22.2383C74.9779 22.7081 74.8353 22.7908 74.5227 22.7908H71.5944C71.3677 22.7908 71.2527 22.6519 71.2527 22.4865C71.2527 22.4038 71.2818 22.3211 71.3385 22.2383L76.4291 14.747L71.6236 7.75354C71.5944 7.69891 71.5669 7.64273 71.5669 7.5881C71.5669 7.39458 71.7661 7.20105 72.022 7.20105H75.2629C75.5755 7.20105 75.718 7.33995 76.0015 7.75354L78.8731 12.0657L81.5455 7.75354C81.8581 7.25567 82.0006 7.20105 82.3132 7.20105H85.2415C85.4682 7.20105 85.5832 7.33995 85.5832 7.50539C85.5832 7.5881 85.5541 7.67082 85.4974 7.75354L80.8053 14.7189L85.98 22.2368C86.0092 22.2914 86.0367 22.3476 86.0367 22.4303C86.0367 22.6238 85.8375 22.7893 85.6108 22.7893" fill="#0C0C0C"/>
<path d="M99.7713 22.7908H97.3548C97.0422 22.7908 96.7863 22.5427 96.7863 22.2383V21.7966C95.4777 22.5707 94.1415 23.0124 92.7777 23.0124C90.4179 23.0124 87.8589 22.1275 87.8589 18.3959V18.2851C87.8589 15.134 89.8494 13.5031 94.7974 13.5031H96.5887V12.2873C96.5887 10.491 95.7643 10.0477 94.0864 10.0477C92.2659 10.0477 90.3904 10.1585 89.451 10.2694H89.3085C89.0234 10.2694 88.7967 10.1866 88.7967 9.79959V8.02976C88.7967 7.72543 88.9667 7.5319 89.3376 7.44918C90.4746 7.22756 92.125 7.00751 94.0864 7.00751C98.1241 7.00751 100.341 8.74924 100.341 12.2873V22.2383C100.341 22.5427 100.086 22.7908 99.7729 22.7908M96.5887 15.9362H94.7974C92.2092 15.9362 91.6407 16.7384 91.6407 18.2851V18.3959C91.6407 19.7506 92.2659 20.1095 93.688 20.1095C94.7116 20.1095 95.7643 19.7771 96.5887 19.3354V15.9362Z" fill="#0C0C0C"/>
<path d="M110.965 21.2176C110.539 22.6816 109.857 22.9578 109.032 22.9578C108.208 22.9578 107.469 22.6816 107.043 21.2176L103.323 8.65406C103.21 8.26701 103.38 7.96423 103.749 7.96423H104.033C104.232 7.96423 104.431 8.07504 104.544 8.46053L108.18 20.9133C108.436 21.742 108.72 21.9075 109.032 21.9075C109.345 21.9075 109.572 21.742 109.828 20.9133L113.464 8.46053C113.577 8.07348 113.776 7.96423 113.976 7.96423H114.316C114.685 7.96423 114.798 8.26857 114.685 8.65406L110.965 21.2176Z" fill="#008CFF"/>
<path d="M118.804 5.22989H118.634C118.35 5.22989 118.094 5.00827 118.094 4.70549V2.66255C118.094 2.3863 118.35 2.13815 118.634 2.13815H118.804C119.087 2.13815 119.343 2.3863 119.343 2.66255V4.70549C119.343 5.00983 119.087 5.22989 118.804 5.22989ZM118.804 22.9562H118.634C118.35 22.9562 118.094 22.7081 118.094 22.4319V8.48706C118.094 8.21081 118.35 7.96266 118.634 7.96266H118.804C119.087 7.96266 119.343 8.21081 119.343 8.48706V22.4319C119.343 22.7081 119.087 22.9562 118.804 22.9562Z" fill="#008CFF"/>
<path d="M134.028 15.6662H124.427V16.2468C124.427 20.8852 126.728 21.8794 129.568 21.8794C130.818 21.8794 132.379 21.6858 133.772 21.4096C134.056 21.355 134.368 21.4096 134.368 21.7686V21.9621C134.368 22.2664 134.255 22.4038 133.829 22.4865C132.465 22.7627 130.847 22.9562 129.568 22.9562C126.045 22.9562 123.177 21.4658 123.177 16.2468V14.4239C123.177 10.6127 125.166 7.82532 128.915 7.82532C132.664 7.82532 134.568 10.4754 134.568 14.3974V15.1434C134.568 15.4477 134.312 15.6678 134.028 15.6678M133.319 14.3974C133.319 10.9186 132.125 8.9022 128.917 8.9022C125.708 8.9022 124.429 11.1387 124.429 14.4239V14.5613H133.319V14.3958V14.3974Z" fill="#008CFF"/>
<path d="M152.661 21.4658C152.405 22.5146 152.065 22.9562 151.183 22.9562C150.302 22.9562 150.019 22.4037 149.735 21.383L146.725 10.8905C146.639 10.6689 146.611 10.6424 146.525 10.6424C146.44 10.6424 146.412 10.6704 146.326 10.8905L143.315 21.383C143.032 22.4053 142.776 22.9562 141.867 22.9562C140.959 22.9562 140.646 22.5146 140.39 21.4658L137.266 8.62594C137.18 8.29507 137.266 7.96265 137.778 7.96265H137.948C138.288 7.96265 138.346 8.15617 138.403 8.3497L141.47 21.1895C141.641 21.8528 141.697 21.8794 141.869 21.8794C142.011 21.8794 142.068 21.7966 142.238 21.2161L145.306 10.5581C145.505 9.84016 145.988 9.56392 146.527 9.56392C147.066 9.56392 147.549 9.84016 147.748 10.5581L150.816 21.2161C150.986 21.7966 151.072 21.8794 151.185 21.8794C151.298 21.8794 151.412 21.8794 151.584 21.1895L154.651 8.3497C154.708 8.15617 154.794 7.96265 155.106 7.96265H155.276C155.816 7.96265 155.901 8.2108 155.788 8.62594L152.664 21.4658H152.661Z" fill="#008CFF"/>
</g>
</g>
</g>
<defs>
<clipPath id="clip0_3_77">
<rect width="155.829" height="27" fill="white"/>
</clipPath>
</defs>
</svg>
