<svg width="24" height="24" fill="none" xmlns="http://www.w3.org/2000/svg">
    <g clip-path="url(#a)">
        <path d="M10 12.5H4a.503.503 0 0 1-.5-.5V4c0-.274.226-.5.5-.5h6c.274 0 .5.226.5.5v8c0 .274-.226.5-.5.5Zm0 8H4a.503.503 0 0 1-.5-.5v-4c0-.274.226-.5.5-.5h6c.274 0 .5.226.5.5v4c0 .274-.226.5-.5.5Zm10 0h-6a.503.503 0 0 1-.5-.5v-8c0-.274.226-.5.5-.5h6c.274 0 .5.226.5.5v8c0 .274-.226.5-.5.5ZM13.5 8V4c0-.274.226-.5.5-.5h6c.274 0 .5.226.5.5v4c0 .274-.226.5-.5.5h-6a.503.503 0 0 1-.5-.5Z" fill="#1c1c1c" stroke="#1c1c1c"/>
    </g>
    <defs>
        <clipPath id="a">
            <path fill="#fff" d="M0 0h24v24H0z"/>
        </clipPath>
    </defs>
</svg>
