<svg width="24" height="24" fill="none" xmlns="http://www.w3.org/2000/svg">
    <path d="M15.516 24a.803.803 0 0 1-.277-.052c-2.053-.525-3.769-1.57-5.1-3.112-1.35-1.561-2.034-3.478-2.034-5.7 0-1.04.389-1.927 1.148-2.634.755-.699 1.664-1.05 2.71-1.05 1.045 0 1.954.356 2.709 1.05.764.707 1.148 1.593 1.148 2.634 0 .586.225 1.064.68 1.472.45.408 1.036.633 1.645.623.605 0 1.125-.201 1.58-.619.445-.403.656-.885.656-1.476 0-2.231-.806-4.05-2.47-5.56-1.655-1.5-3.656-2.259-5.953-2.259s-4.299.76-5.953 2.26c-1.66 1.509-2.47 3.328-2.47 5.559 0 .436.05 1.017.154 1.73.099.698.319 1.509.647 2.409.14.352.014.59-.075.703-.075.09-.16.169-.258.234l-.028.02-.028.013a.823.823 0 0 1-.572.066.756.756 0 0 1-.54-.469l-.004-.01-.004-.013c-.258-.75-.46-1.519-.61-2.297a12.65 12.65 0 0 1-.225-2.381c0-2.607 1.003-4.861 2.977-6.704 1.964-1.832 4.312-2.765 6.98-2.765 2.723 0 5.095.914 7.05 2.719 1.968 1.814 2.962 4.087 2.962 6.75 0 1.022-.38 1.893-1.134 2.601-.746.699-1.65 1.055-2.696 1.055-1.064 0-1.987-.352-2.751-1.05-.774-.708-1.168-1.584-1.168-2.606 0-.61-.215-1.102-.656-1.505a2.3 2.3 0 0 0-1.608-.619c-.6-.01-1.18.211-1.621.624-.45.403-.67.895-.67 1.5 0 1.856.566 3.426 1.682 4.659 1.14 1.26 2.583 2.156 4.29 2.662l.013.005c.244.08.413.211.502.394a.858.858 0 0 1-.267 1.036.665.665 0 0 1-.361.103Zm-6.244-.234a.711.711 0 0 1-.553-.277c-1.135-1.177-2.035-2.433-2.677-3.736-.656-1.326-.984-2.883-.984-4.617 0-1.842.689-3.417 2.044-4.678 1.345-1.252 2.98-1.89 4.865-1.89 1.885 0 3.53.634 4.894 1.885 1.378 1.261 2.072 2.836 2.072 4.678a.744.744 0 0 1-.703.783h-.08a.839.839 0 0 1-.548-.187.745.745 0 0 1-.263-.596c0-1.42-.516-2.583-1.58-3.543-1.078-.98-2.315-1.454-3.796-1.454-1.482 0-2.71.474-3.765 1.454-1.045.965-1.551 2.128-1.551 3.548 0 1.547.267 2.878.797 3.951.539 1.097 1.354 2.218 2.428 3.324.234.239.258.473.239.633a.851.851 0 0 1-.24.468.942.942 0 0 1-.379.22.74.74 0 0 1-.22.034Zm8.615-2.213c-1.804 0-3.393-.61-4.72-1.81-1.34-1.213-2.015-2.765-2.015-4.607a.838.838 0 0 1 .187-.548.806.806 0 0 1 1.134-.057l.057.056a.83.83 0 0 1 .187.549c0 1.416.506 2.555 1.542 3.469 1.06.933 2.246 1.387 3.628 1.387.136 0 .305-.01.502-.028.197-.019.417-.047.652-.08a.927.927 0 0 1 .164-.014c.168 0 .337.057.468.164a.865.865 0 0 1 .268.38l.004.019.005.019a.778.778 0 0 1-.052.543.722.722 0 0 1-.51.375 4.59 4.59 0 0 1-1.004.174c-.36.01-.454.01-.497.01ZM1.814 9.543a.86.86 0 0 1-.37-.088.698.698 0 0 1-.39-.628c0-.16.038-.32.109-.464l.018-.038.024-.033a12.645 12.645 0 0 1 4.697-3.98 13.508 13.508 0 0 1 6.056-1.401c2.1-.01 4.176.46 6.07 1.369a12.588 12.588 0 0 1 4.744 3.951l.014.019.01.019c.121.201.163.384.135.567a.803.803 0 0 1-.239.44.774.774 0 0 1-.567.23c-.169 0-.413-.056-.633-.328l-.01-.01-.009-.009a10.813 10.813 0 0 0-4.143-3.468 12.348 12.348 0 0 0-5.382-1.22A11.93 11.93 0 0 0 6.614 5.7 11.363 11.363 0 0 0 2.48 9.16l-.005.009-.005.004c-.145.179-.295.291-.464.338a.823.823 0 0 1-.192.033Zm3.281-6.248a.617.617 0 0 1-.328-.089.884.884 0 0 1-.262-.248.715.715 0 0 1-.164-.478.696.696 0 0 1 .304-.586l.02-.014.018-.01A15.564 15.564 0 0 1 8.236.473a15.124 15.124 0 0 1 7.519 0c1.218.31 2.4.755 3.525 1.327.248.108.407.31.44.562a.783.783 0 0 1-.122.54.991.991 0 0 1-.323.3.722.722 0 0 1-.356.093.843.843 0 0 1-.319-.065l-.019-.01-.018-.01a16.959 16.959 0 0 0-3.216-1.185 13.536 13.536 0 0 0-3.384-.431c-1.135 0-2.26.131-3.361.403a13.202 13.202 0 0 0-3.136 1.21l-.024.013-.028.01c-.103.037-.21.06-.319.065Z" fill="#000"/>
</svg>
