<svg width="24" height="24" fill="none" xmlns="http://www.w3.org/2000/svg">
    <g clip-path="url(#a)" fill="#000">
        <path d="M21.738 2.262c-3.016-3.016-7.924-3.016-10.94 0a7.734 7.734 0 0 0-1.883 7.85l-8.709 8.71a.703.703 0 0 0-.206.497v3.978c0 .388.315.703.703.703h3.978a.703.703 0 0 0 .498-.206l.994-.995a.703.703 0 0 0 .202-.578l-.125-1.068 1.48-.14a.703.703 0 0 0 .635-.634l.14-1.48 1.068.124a.702.702 0 0 0 .784-.699v-1.31h1.286a.703.703 0 0 0 .494-.203l1.747-1.726a7.734 7.734 0 0 0 7.854-1.883c3.016-3.016 3.016-7.924 0-10.94Zm-.994 9.945a6.33 6.33 0 0 1-6.784 1.412.703.703 0 0 0-.75.155l-1.856 1.834h-1.7a.703.703 0 0 0-.703.703v1.223l-.998-.115a.704.704 0 0 0-.781.632l-.153 1.617-1.616.152a.703.703 0 0 0-.633.781l.168 1.444-.548.549H1.406V19.61l8.817-8.817a.703.703 0 0 0 .158-.753 6.33 6.33 0 0 1 1.412-6.783 6.336 6.336 0 0 1 8.95 0 6.336 6.336 0 0 1 0 8.95Z"/>
        <path d="M19.749 4.251a2.112 2.112 0 0 0-2.984 0 2.112 2.112 0 0 0 0 2.984 2.112 2.112 0 0 0 2.984 0 2.112 2.112 0 0 0 0-2.984Zm-.995 1.99a.704.704 0 1 1-.994-.998.704.704 0 0 1 .994.997Z"/>
    </g>
    <defs>
        <clipPath id="a">
            <path fill="#fff" d="M0 0h24v24H0z"/>
        </clipPath>
    </defs>
</svg>
