<svg width="24" height="24" fill="none" xmlns="http://www.w3.org/2000/svg">
    <path d="M21.6 24H7.638a2.4 2.4 0 0 1-2.4-2.4v-.393a6.764 6.764 0 0 1 0-13.178V2.4a2.4 2.4 0 0 1 2.4-2.4h9.748a2.391 2.391 0 0 1 1.702.707l4.207 4.206A2.392 2.392 0 0 1 24 6.66V21.6a2.4 2.4 0 0 1-2.4 2.4ZM6.547 21.382v.218a1.091 1.091 0 0 0 1.091 1.09h13.964a1.09 1.09 0 0 0 1.09-1.09V7.418h-3.709a2.4 2.4 0 0 1-2.4-2.4V1.31H7.637A1.09 1.09 0 0 0 6.547 2.4v5.455h.217a6.764 6.764 0 0 1 0 13.527h-.218Zm.218-12.218a5.454 5.454 0 1 0 0 10.909 5.454 5.454 0 0 0 0-10.91ZM17.892 1.43v3.587a1.091 1.091 0 0 0 1.09 1.091h3.587c-.054-.099-.121-.19-.2-.27l-4.207-4.207a1.213 1.213 0 0 0-.27-.2Zm1.963 16.46h-4.364a.655.655 0 0 1 0-1.31h4.364a.655.655 0 0 1 0 1.31Zm-14.4-1.31a.654.654 0 0 1-.436-1.09l1.117-1.117V12a.654.654 0 1 1 1.309 0v2.618c0 .174-.07.34-.192.463l-1.361 1.283a.646.646 0 0 1-.437.218Zm14.4-2.181h-3.49a.655.655 0 0 1 0-1.31h3.49a.655.655 0 0 1 0 1.31Zm0-3.49h-4.364a.655.655 0 0 1 0-1.31h4.364a.655.655 0 0 1 0 1.31Zm-6.109-3.492h-2.618a.654.654 0 1 1 0-1.309h2.618a.654.654 0 1 1 0 1.31Z" fill="#000"/>
</svg>
