<svg width="80" height="80" viewBox="0 0 80 80" fill="none" xmlns="http://www.w3.org/2000/svg">
<path d="M23.3333 10H16.6667C14.8986 10 13.2029 10.7024 11.9526 11.9526C10.7024 13.2029 10 14.8986 10 16.6667V23.3333M56.6667 10H63.3333C65.1014 10 66.7971 10.7024 68.0474 11.9526C69.2976 13.2029 70 14.8986 70 16.6667V23.3333M53.3333 26.6667V33.3333M26.6667 26.6667V33.3333M30 53.3333C30 53.3333 33.3333 56.6667 40 56.6667C46.6667 56.6667 50 53.3333 50 53.3333M40 26.6667V43.3333H36.6667M23.3333 70H16.6667C14.8986 70 13.2029 69.2976 11.9526 68.0474C10.7024 66.7971 10 65.1014 10 63.3333V56.6667M56.6667 70H63.3333C65.1014 70 66.7971 69.2976 68.0474 68.0474C69.2976 66.7971 70 65.1014 70 63.3333V56.6667" stroke="#300349" stroke-width="5" stroke-linecap="round" stroke-linejoin="round"/>
</svg>
