<svg width="180" height="40" viewBox="0 0 180 40" fill="none" xmlns="http://www.w3.org/2000/svg">
<g clip-path="url(#clip0_1834_13245)">
<mask id="mask0_1834_13245" style="mask-type:luminance" maskUnits="userSpaceOnUse" x="0" y="0" width="180" height="40">
<path d="M180 0H0V39.2727H180V0Z" fill="white"/>
</mask>
<g mask="url(#mask0_1834_13245)">
<mask id="mask1_1834_13245" style="mask-type:luminance" maskUnits="userSpaceOnUse" x="0" y="0" width="180" height="40">
<path d="M180 0H0V39.2727H180V0Z" fill="white"/>
</mask>
<g mask="url(#mask1_1834_13245)">
<mask id="mask2_1834_13245" style="mask-type:luminance" maskUnits="userSpaceOnUse" x="1" y="1" width="179" height="39">
<path d="M180 1.63672H1.63623V39.2731H180V1.63672Z" fill="white"/>
</mask>
<g mask="url(#mask2_1834_13245)">
<mask id="mask3_1834_13245" style="mask-type:luminance" maskUnits="userSpaceOnUse" x="1" y="1" width="179" height="39">
<path d="M180 1.6377H1.63611V39.2741H180V1.6377Z" fill="white"/>
</mask>
<g mask="url(#mask3_1834_13245)">
<mask id="mask4_1834_13245" style="mask-type:luminance" maskUnits="userSpaceOnUse" x="1" y="1" width="179" height="39">
<path d="M180 1.63965H1.63611V39.276H180V1.63965Z" fill="white"/>
</mask>
<g mask="url(#mask4_1834_13245)">
<path d="M35.3408 5.86035H29.0215C27.8604 5.86035 26.9133 4.92834 26.9133 3.77392C26.9133 2.61951 27.8549 1.6875 29.0215 1.6875H37.449C38.6102 1.6875 39.5573 2.61951 39.5573 3.77392V12.1143C39.5573 13.2634 38.6155 14.2008 37.449 14.2008C36.2826 14.2008 35.3408 13.2687 35.3408 12.1143V5.86035ZM5.84707 5.86035V12.1143C5.84707 13.2634 4.90533 14.2008 3.73884 14.2008C2.57236 14.2008 1.63062 13.2687 1.63062 12.1143V3.77922C1.63597 2.6248 2.57771 1.6928 3.7442 1.6928H12.1718C13.3329 1.6928 14.28 2.6248 14.28 3.77922C14.28 4.93363 13.3382 5.86564 12.1718 5.86564H5.84707V5.86035ZM35.3408 35.0491V28.7951C35.3408 27.646 36.2826 26.7087 37.449 26.7087C38.6155 26.7087 39.5573 27.6406 39.5573 28.7951V37.1355C39.5573 38.2847 38.6155 39.222 37.449 39.222H29.0215C27.8604 39.222 26.9133 38.2899 26.9133 37.1355C26.9133 35.9812 27.8549 35.0491 29.0215 35.0491H35.3408ZM5.84707 35.0491H12.1664C13.3275 35.0491 14.2746 35.9812 14.2746 37.1355C14.2746 38.2899 13.3329 39.222 12.1664 39.222H3.7442C2.58306 39.222 1.63597 38.2899 1.63597 37.1355V28.7951C1.63597 27.646 2.57771 26.7087 3.7442 26.7087C4.91067 26.7087 5.85241 27.6406 5.85241 28.7951V35.0491H5.84707ZM10.0635 22.5412C8.90239 22.5412 7.95529 21.6091 7.95529 20.4547C7.95529 19.3002 8.89703 18.3683 10.0635 18.3683H31.1298C32.2908 18.3683 33.238 19.3002 33.238 20.4547C33.238 21.6091 32.2961 22.5412 31.1298 22.5412H10.0635Z" fill="url(#paint0_linear_1834_13245)"/>
<path d="M56.3538 6.11879C56.3538 12.0232 65.4128 12.0232 65.4128 6.11879C65.4128 0.214311 56.3538 0.214311 56.3538 6.11879ZM61.0357 39.2209C63.6095 39.2209 65.616 37.1344 65.616 34.6403V16.6144C65.616 14.1203 63.6095 12.0815 61.0357 12.0815C58.4619 12.0815 56.5089 14.3215 56.5089 16.8686V34.6403C56.5089 37.1344 58.5689 39.2209 61.0357 39.2209Z" fill="white"/>
<path d="M75.1352 39.0161H87.0729C91.2412 39.0161 94.6337 35.6058 94.6337 31.4276V7.65085C94.6337 5.15668 92.5736 3.27148 90.1604 3.27148C87.7472 3.27148 85.6335 5.15668 85.6335 7.65085V19.4652C83.9319 14.2702 81.3101 11.9826 75.1352 12.1838C70.9187 12.3374 67.6227 15.4935 67.6227 19.6663V31.4276C67.6227 35.6058 71.0204 39.0161 75.1352 39.0161ZM85.6335 21.0961V30.0032H76.6281V21.0961H85.6335Z" fill="white"/>
<path d="M96.6884 19.6663V31.6818C96.6884 35.7592 100.081 39.0161 104.201 39.0161H118.455C124.368 39.1166 124.422 30.056 118.455 30.056H115.416C119.638 27.4084 123.854 25.3219 123.854 19.6663C123.854 18.9037 123.699 18.1412 123.442 17.474C122.517 14.4185 119.633 12.2314 116.342 12.2314H104.099C99.9791 12.2314 96.6884 15.5888 96.6884 19.6663ZM114.646 30.1567H105.742V21.2444H114.646V30.1567Z" fill="white"/>
<path d="M152.31 34.584V20.4821C152.31 15.3402 148.297 12.0782 143.203 12.0782C139.345 12.0782 136.359 14.011 135.022 18.0832C134.92 18.3375 134.765 18.3375 134.765 18.0832V16.5581C134.765 14.011 132.705 11.9775 130.19 11.9775C127.675 11.9775 125.711 14.0163 125.711 16.5581V34.7376C125.711 37.1311 127.772 39.1699 130.19 39.1699C132.609 39.1699 134.765 37.1311 134.765 34.7376V21.0912H143.203V34.584C143.203 37.1311 145.156 39.1699 147.682 39.1699C150.208 39.1699 152.31 37.1311 152.31 34.584Z" fill="white"/>
<path d="M158.073 12.3848H170.733V23.4365H171.092L176.854 18.7552C182.874 13.8146 179.733 3.4248 171.97 3.4248H158.078C152.262 3.4248 152.214 12.3848 158.078 12.3848H158.073ZM163.37 30.1036V18.5963H163.06L154.365 27.5086V39.0158H175.463C181.28 39.0158 181.28 30.1036 175.463 30.1036H163.37Z" fill="#8B2EE5"/>
</g>
</g>
</g>
</g>
</g>
</g>
<defs>
<linearGradient id="paint0_linear_1834_13245" x1="20.5939" y1="39.222" x2="20.5939" y2="1.6928" gradientUnits="userSpaceOnUse">
<stop stop-color="white"/>
<stop offset="0.605" stop-color="#796190"/>
<stop offset="1" stop-color="#8B2EE5"/>
</linearGradient>
<clipPath id="clip0_1834_13245">
<rect width="180" height="39.2727" fill="white"/>
</clipPath>
</defs>
</svg>
