<svg width="110" height="24" xmlns="http://www.w3.org/2000/svg" xml:space="preserve" overflow="hidden"><defs><clipPath id="clip0"><rect x="1142" y="26" width="110" height="24"/></clipPath><clipPath
    id="clip1"><rect x="1142" y="26" width="110" height="24"/></clipPath><clipPath id="clip2"><rect x="1143" y="27" width="109" height="23"/></clipPath><clipPath
    id="clip3"><rect x="1143" y="27" width="109" height="23"/></clipPath><clipPath id="clip4"><rect x="1143" y="27" width="109" height="23"/></clipPath><linearGradient
    x1="11.4656" y1="22.9345" x2="11.4656" y2="0" gradientUnits="userSpaceOnUse" spreadMethod="pad"
    id="fill5"><stop offset="0" stop-color="#737373" stop-opacity="1"/>
    <stop offset="0.25" stop-color="#796190" stop-opacity="1" />
    <stop offset="1" stop-color="#8B2EE5" stop-opacity="1" /></linearGradient></defs>
    <g clip-path="url(#clip0)" transform="translate(-1142 -26)"><g clip-path="url(#clip1)"><g clip-path="url(#clip2)"><g clip-path="url(#clip3)"><g clip-path="url(#clip4)"><path d="M20.3844 2.54684 16.5625 2.54684C15.8603 2.54684 15.2875 1.97728 15.2875 1.2718 15.2875 0.566323 15.857-0.00323613 16.5625-0.00323613L21.6594-0.00323613C22.3617-0.00323613 22.9345 0.566323 22.9345 1.2718L22.9345 6.36871C22.9345 7.07095 22.3649 7.64375 21.6594 7.64375 20.954 7.64375 20.3844 7.07419 20.3844 6.36871L20.3844 2.54684ZM2.54684 2.54684 2.54684 6.36871C2.54684 7.07095 1.97728 7.64375 1.2718 7.64375 0.566323 7.64375-0.00323613 7.07419-0.00323613 6.36871L-0.00323613 1.27504C0 0.569559 0.569559 0 1.27504 0L6.37195 0C7.07419 0 7.64698 0.569559 7.64698 1.27504 7.64698 1.98051 7.07742 2.55007 6.37195 2.55007L2.54684 2.55007ZM20.3844 20.3844 20.3844 16.5625C20.3844 15.8603 20.954 15.2875 21.6594 15.2875 22.3649 15.2875 22.9345 15.857 22.9345 16.5625L22.9345 21.6594C22.9345 22.3617 22.3649 22.9345 21.6594 22.9345L16.5625 22.9345C15.8603 22.9345 15.2875 22.3649 15.2875 21.6594 15.2875 20.954 15.857 20.3844 16.5625 20.3844L20.3844 20.3844ZM2.54684 20.3844 6.36871 20.3844C7.07095 20.3844 7.64375 20.954 7.64375 21.6594 7.64375 22.3649 7.07419 22.9345 6.36871 22.9345L1.27504 22.9345C0.572795 22.9345 0 22.3649 0 21.6594L0 16.5625C0 15.8603 0.569559 15.2875 1.27504 15.2875 1.98051 15.2875 2.55007 15.857 2.55007 16.5625L2.55007 20.3844ZM5.09691 12.7407C4.39467 12.7407 3.82187 12.1711 3.82187 11.4656 3.82187 10.7601 4.39143 10.1906 5.09691 10.1906L17.8376 10.1906C18.5398 10.1906 19.1126 10.7601 19.1126 11.4656 19.1126 12.1711 18.543 12.7407 17.8376 12.7407L5.09691 12.7407Z" fill="url(#fill5)" fill-rule="nonzero" transform="matrix(1.01045 0 0 1 1143 27.0328)"/><path
        d="M33.0927 2.70541C33.0927 6.31369 38.5715 6.31369 38.5715 2.70541 38.5715-0.902881 33.0927-0.902881 33.0927 2.70541ZM35.9243 22.9345C37.4809 22.9345 38.6944 21.6594 38.6944 20.1352L38.6944 9.11942C38.6944 7.5952 37.4809 6.34929 35.9243 6.34929 34.3677 6.34929 33.1865 7.71818 33.1865 9.27476L33.1865 20.1352C33.1865 21.6594 34.4324 22.9345 35.9243 22.9345Z"
        fill="#737373" fill-rule="nonzero" fill-opacity="1"
        transform="matrix(1.01045 0 0 1 1143 27.0328)" /><path
        d="M44.4515 22.8083 51.6713 22.8083C54.1923 22.8083 56.244 20.7242 56.244 18.1709L56.244 3.64065C56.244 2.11643 54.9981 0.964368 53.5386 0.964368 52.0791 0.964368 50.8008 2.11643 50.8008 3.64065L50.8008 10.8605C49.7717 7.68581 48.186 6.28781 44.4515 6.41078 41.9014 6.50463 39.908 8.43336 39.908 10.9834L39.908 18.1709C39.908 20.7242 41.9629 22.8083 44.4515 22.8083ZM50.8008 11.8572 50.8008 17.3004 45.3544 17.3004 45.3544 11.8572 50.8008 11.8572Z"
        fill="#737373" fill-rule="nonzero" fill-opacity="1"
        transform="matrix(1.01045 0 0 1 1143 27.0328)" /><path
        d="M57.4867 10.9834 57.4867 18.3262C57.4867 20.818 59.5384 22.8083 62.0302 22.8083L70.6512 22.8083C74.2272 22.8697 74.2595 17.3327 70.6512 17.3327L68.8131 17.3327C71.3664 15.7147 73.9165 14.4396 73.9165 10.9834 73.9165 10.5174 73.8227 10.0514 73.6673 9.64367 73.1075 7.77643 71.3632 6.4399 69.373 6.4399L61.9687 6.4399C59.4769 6.4399 57.4867 8.49161 57.4867 10.9834ZM68.3471 17.3942 62.9622 17.3942 62.9622 11.9478 68.3471 11.9478 68.3471 17.3942Z"
        fill="#737373" fill-rule="nonzero" fill-opacity="1"
        transform="matrix(1.01045 0 0 1 1143 27.0328)" /><path
        d="M91.1263 20.0996 91.1263 11.4818C91.1263 8.33951 88.6992 6.34606 85.6184 6.34606 83.2851 6.34606 81.4793 7.52724 80.6703 10.0158 80.6088 10.1712 80.515 10.1712 80.515 10.0158L80.515 9.08382C80.515 7.52724 79.2691 6.28457 77.7481 6.28457 76.2271 6.28457 75.0394 7.53048 75.0394 9.08382L75.0394 20.1935C75.0394 21.6562 76.2854 22.9021 77.7481 22.9021 79.2108 22.9021 80.515 21.6562 80.515 20.1935L80.515 11.854 85.6184 11.854 85.6184 20.0996C85.6184 21.6562 86.7995 22.9021 88.327 22.9021 89.8545 22.9021 91.1263 21.6562 91.1263 20.0996Z"
        fill="#737373" fill-rule="nonzero" fill-opacity="1"
        transform="matrix(1.01045 0 0 1 1143 27.0328)" /><path
        d="M94.6116 6.53375 102.268 6.53375 102.268 13.2876 102.485 13.2876 105.97 10.4268C109.611 7.40751 107.711 1.05822 103.016 1.05822L94.6148 1.05822C91.0971 1.05822 91.068 6.53375 94.6148 6.53375ZM97.8153 17.3619 97.8153 10.3297 97.6276 10.3297 92.3689 15.7761 92.3689 22.8083 105.129 22.8083C108.647 22.8083 108.647 17.3619 105.129 17.3619L97.8153 17.3619Z"
        fill="#8B2EE5" fill-rule="nonzero" fill-opacity="1"
        transform="matrix(1.01045 0 0 1 1143 27.0328)" /></g></g></g></g></g></svg>